{"title":"Full Metal Jacket(1987)MPEG-4[DaScubaDude]","uid":15895821,"size":1282289804,"categoryP":"video","categoryS":"movies","magnet":"?xt=urn:btih:01a2f09b6d816906bbe7abca0d80408ca570377e&amp;dn=Full+Metal+Jacket%281987%29MPEG-4%5BDaScubaDude%5D&amp;tr=udp%3A%2F%2Ftracker.leechers-paradise.org%3A6969&amp;tr=udp%3A%2F%2Fzer0day.ch%3A1337&amp;tr=udp%3A%2F%2Fopen.demonii.com%3A1337&amp;tr=udp%3A%2F%2Ftracker.coppersurfer.tk%3A6969&amp;tr=udp%3A%2F%2Fexodus.desync.com%3A6969","seeders":40,"leechers":10,"uploader":"dascuba","files":1,"time":1474800399,"description":"Full Metal Jacket (1987)\r\nR | 1h 56min | Drama, War | 10 July 1987 (USA)\r\nGeneral\r\nComplete name                            : Full Metal JacketFULL_METAL_JACKET_Title1.mp4\r\nFormat                                   : MPEG-4\r\nFormat profile                           : Base Media\r\nCodec ID                                 : isom (isom/iso2/avc1/mp41)\r\nFile size                                : 1.19 GiB\r\nDuration                                 : 1h 56mn\r\nOverall bit rate mode                    : Variable\r\nOverall bit rate                         : 1 469 Kbps\r\nMovie name                               : FULL_METAL_JACKET\r\nGenre                                    : War\r\nWriting application                      : Lavf54.6.100\r\n\r\nVideo\r\nID                                       : 1\r\nFormat                                   : AVC\r\nFormat/Info                              : Advanced Video Codec\r\nFormat profile                           :   \r\nFormat settings, CABAC                   : No\r\nFormat settings, ReFrames                : 6 frames\r\nCodec ID                                 : avc1\r\nCodec ID/Info                            : Advanced Video Coding\r\nDuration                                 : 1h 56mn\r\nBit rate                                 : 1 186 Kbps\r\nWidth                                    : 720 pixels\r\nHeight                                   : 540 pixels\r\nDisplay aspect ratio                     : 4:3\r\nFrame rate mode                          : Constant\r\nFrame rate                               : 29.970 (30000/1001) fps\r\nColor space                              : YUV\r\nChroma subsampling                       : 4:2:0\r\nBit depth                                : 8 bits\r\nScan type                                : Progressive\r\nBits/(Pixel*Frame)                       : 0.102\r\nStream size                              : 987 MiB (81%)\r\n\r\nAudio\r\nID                                       : 2\r\nFormat                                   : AAC\r\nFormat/Info                              : Advanced Audio Codec\r\nFormat profile                           : LC\r\nCodec ID                                 : 40\r\nDuration                                 : 1h 56mn\r\nBit rate mode                            : Variable\r\nBit rate                                 : 276 Kbps\r\nMaximum bit rate                         : 344 Kbps\r\nChannel(s)                               : 2 channels\r\nChannel(s)_Original                      : 6 channels\r\nChannel positions                        : Front: L C R, Side: L R, LFE\r\nSampling rate                            : 44.1 KHz\r\nFrame rate                               : 43.066 fps (1024 spf)\r\nCompression mode                         : Lossy\r\nStream size                              : 230 MiB (19%)\r\nDefault                                  : Yes\r\nAlternate group                          : 1","torrent":{"xt":"urn:btih:01a2f09b6d816906bbe7abca0d80408ca570377e","amp;dn":"Full+Metal+Jacket%281987%29MPEG-4%5BDaScubaDude%5D","amp;tr":["udp%3A%2F%2Ftracker.leechers-paradise.org%3A6969","udp%3A%2F%2Fzer0day.ch%3A1337","udp%3A%2F%2Fopen.demonii.com%3A1337","udp%3A%2F%2Ftracker.coppersurfer.tk%3A6969","udp%3A%2F%2Fexodus.desync.com%3A6969"],"infoHash":"01a2f09b6d816906bbe7abca0d80408ca570377e","infoHashBuffer":{"type":"Buffer","data":[1,162,240,155,109,129,105,6,187,231,171,202,13,128,64,140,165,112,55,126]},"announce":[],"urlList":[]}}